<?xml version="1.0" standalone="no"?>
<!DOCTYPE svg PUBLIC "-//W3C//DTD SVG 20010904//EN"
 "http://www.w3.org/TR/2001/REC-SVG-20010904/DTD/svg10.dtd">
<svg version="1.0" xmlns="http://www.w3.org/2000/svg"
 width="1024.000000pt" height="1024.000000pt" viewBox="0 0 1024.000000 1024.000000"
 preserveAspectRatio="xMidYMid meet">

<g transform="translate(0.000000,1024.000000) scale(0.100000,-0.100000)"
fill="#000000" stroke="none">
<path d="M2345 10139 c-413 -7 -510 -14 -708 -50 -252 -46 -540 -180 -782
-362 -104 -79 -294 -270 -374 -376 -159 -209 -280 -477 -335 -740 -60 -284
-58 -168 -63 -3311 -5 -3040 -1 -3409 36 -3592 73 -360 186 -610 393 -870 213
-268 432 -445 719 -582 253 -121 451 -170 756 -187 124 -6 1244 -9 3278 -7
l3090 4 135 22 c159 25 248 49 388 104 270 105 495 250 688 442 71 72 160 169
196 216 227 294 356 620 397 1005 6 56 11 1281 11 3210 2 2797 0 3136 -14
3278 -20 197 -37 280 -86 427 -98 295 -207 486 -409 715 -249 283 -663 529
-1006 599 -213 43 -283 47 -955 56 -770 10 -4760 10 -5355 -1z m620 -3293
c206 -39 347 -92 477 -179 261 -173 397 -441 450 -882 19 -157 15 -670 -6
-843 -41 -341 -139 -581 -307 -751 -152 -153 -373 -253 -644 -292 -50 -7 -306
-13 -682 -16 l-602 -5 -26 26 -25 25 0 1446 0 1446 25 25 25 25 613 -4 c527
-3 625 -6 702 -21z m3182 0 l28 -24 3 -300 3 -301 -30 -33 -29 -33 -521 -3
-521 -3 0 -229 0 -230 414 0 c263 0 425 -4 442 -10 53 -21 53 -23 54 -336 0
-273 -1 -293 -19 -315 l-19 -24 -434 0 -433 0 -5 -543 -5 -544 -24 -19 c-22
-18 -44 -19 -376 -19 -194 0 -361 3 -370 6 -46 18 -45 -31 -45 1489 0 1239 2
1430 15 1455 8 15 20 30 27 33 7 3 419 6 915 6 l902 1 28 -24z m957 2 c26 -24
45 -79 190 -563 180 -603 320 -1157 372 -1470 9 -55 19 -107 21 -115 3 -8 43
152 88 355 97 433 145 626 221 889 77 265 261 862 274 886 6 11 19 24 30 30
12 6 158 10 396 10 418 0 414 1 414 -64 0 -18 -23 -99 -50 -181 -197 -585
-714 -2179 -821 -2530 -29 -98 -60 -180 -72 -192 l-20 -23 -448 0 c-411 0
-449 1 -468 18 -16 12 -54 117 -145 407 -139 438 -313 979 -607 1884 -135 417
-197 621 -193 637 4 13 14 29 23 34 9 5 172 10 393 10 l377 0 25 -22z"/>
<path d="M2410 5360 l0 -793 153 6 c167 7 255 24 330 64 95 52 147 123 184
251 21 74 31 698 14 864 -23 220 -88 320 -240 370 -55 17 -98 22 -253 26
l-188 4 0 -792z"/>
</g>
</svg>
